<svg width="126" height="32" viewBox="0 0 293 90" fill="none" xmlns="http://www.w3.org/2000/svg">
<path d="M16.6818 0.181816L33.5568 53.2273H34.2045L51.1136 0.181816H67.4773L43.4091 70H24.3864L0.284091 0.181816H16.6818ZM84.7273 70.9886C81.3864 70.9886 78.4091 70.4091 75.7955 69.25C73.1818 68.0682 71.1136 66.3295 69.5909 64.0341C68.0909 61.7159 67.3409 58.8295 67.3409 55.375C67.3409 52.4659 67.875 50.0227 68.9432 48.0455C70.0114 46.0682 71.4659 44.4773 73.3068 43.2727C75.1477 42.0682 77.2386 41.1591 79.5795 40.5455C81.9432 39.9318 84.4205 39.5 87.0114 39.25C90.0568 38.9318 92.5114 38.6364 94.375 38.3636C96.2386 38.0682 97.5909 37.6364 98.4318 37.0682C99.2727 36.5 99.6932 35.6591 99.6932 34.5455V34.3409C99.6932 32.1818 99.0114 30.5114 97.6477 29.3295C96.3068 28.1477 94.3977 27.5568 91.9205 27.5568C89.3068 27.5568 87.2273 28.1364 85.6818 29.2955C84.1364 30.4318 83.1136 31.8636 82.6136 33.5909L69.1818 32.5C69.8636 29.3182 71.2045 26.5682 73.2045 24.25C75.2045 21.9091 77.7841 20.1136 80.9432 18.8636C84.125 17.5909 87.8068 16.9545 91.9886 16.9545C94.8977 16.9545 97.6818 17.2955 100.341 17.9773C103.023 18.6591 105.398 19.7159 107.466 21.1477C109.557 22.5795 111.205 24.4205 112.409 26.6705C113.614 28.8977 114.216 31.5682 114.216 34.6818V70H100.443V62.7386H100.034C99.1932 64.375 98.0682 65.8182 96.6591 67.0682C95.25 68.2955 93.5568 69.2614 91.5795 69.9659C89.6023 70.6477 87.3182 70.9886 84.7273 70.9886ZM88.8864 60.9659C91.0227 60.9659 92.9091 60.5455 94.5455 59.7045C96.1818 58.8409 97.4659 57.6818 98.3977 56.2273C99.3295 54.7727 99.7955 53.125 99.7955 51.2841V45.7273C99.3409 46.0227 98.7159 46.2955 97.9205 46.5455C97.1477 46.7727 96.2727 46.9886 95.2955 47.1932C94.3182 47.375 93.3409 47.5455 92.3636 47.7045C91.3864 47.8409 90.5 47.9659 89.7045 48.0795C88 48.3295 86.5114 48.7273 85.2386 49.2727C83.9659 49.8182 82.9773 50.5568 82.2727 51.4886C81.5682 52.3977 81.2159 53.5341 81.2159 54.8977C81.2159 56.875 81.9318 58.3864 83.3636 59.4318C84.8182 60.4545 86.6591 60.9659 88.8864 60.9659ZM169.051 32.5682L155.756 33.3864C155.528 32.25 155.04 31.2273 154.29 30.3182C153.54 29.3864 152.551 28.6477 151.324 28.1023C150.119 27.5341 148.676 27.25 146.994 27.25C144.744 27.25 142.847 27.7273 141.301 28.6818C139.756 29.6136 138.983 30.8636 138.983 32.4318C138.983 33.6818 139.483 34.7386 140.483 35.6023C141.483 36.4659 143.199 37.1591 145.631 37.6818L155.108 39.5909C160.199 40.6364 163.994 42.3182 166.494 44.6364C168.994 46.9545 170.244 50 170.244 53.7727C170.244 57.2045 169.233 60.2159 167.21 62.8068C165.21 65.3977 162.46 67.4205 158.96 68.875C155.483 70.3068 151.472 71.0227 146.926 71.0227C139.994 71.0227 134.472 69.5795 130.358 66.6932C126.267 63.7841 123.869 59.8295 123.165 54.8295L137.449 54.0795C137.881 56.1932 138.926 57.8068 140.585 58.9205C142.244 60.0114 144.369 60.5568 146.96 60.5568C149.506 60.5568 151.551 60.0682 153.097 59.0909C154.665 58.0909 155.46 56.8068 155.483 55.2386C155.46 53.9205 154.903 52.8409 153.812 52C152.722 51.1364 151.04 50.4773 148.767 50.0227L139.699 48.2159C134.585 47.1932 130.778 45.4205 128.278 42.8977C125.801 40.375 124.562 37.1591 124.562 33.25C124.562 29.8864 125.472 26.9886 127.29 24.5568C129.131 22.125 131.71 20.25 135.028 18.9318C138.369 17.6136 142.278 16.9545 146.756 16.9545C153.369 16.9545 158.574 18.3523 162.369 21.1477C166.188 23.9432 168.415 27.75 169.051 32.5682ZM207.241 17.6364V28.5455H175.707V17.6364H207.241ZM182.866 5.09091H197.389V53.9091C197.389 55.25 197.594 56.2955 198.003 57.0455C198.412 57.7727 198.98 58.2841 199.707 58.5795C200.457 58.875 201.321 59.0227 202.298 59.0227C202.98 59.0227 203.662 58.9659 204.344 58.8523C205.026 58.7159 205.548 58.6136 205.912 58.5455L208.196 69.3523C207.469 69.5795 206.446 69.8409 205.128 70.1364C203.81 70.4545 202.207 70.6477 200.321 70.7159C196.821 70.8523 193.753 70.3864 191.116 69.3182C188.503 68.25 186.469 66.5909 185.014 64.3409C183.56 62.0909 182.844 59.25 182.866 55.8182V5.09091ZM232.349 0.181816V70H217.827V0.181816H232.349ZM252.949 89.6364C251.108 89.6364 249.381 89.4886 247.767 89.1932C246.176 88.9205 244.858 88.5682 243.812 88.1364L247.085 77.2955C248.79 77.8182 250.324 78.1023 251.688 78.1477C253.074 78.1932 254.267 77.875 255.267 77.1932C256.29 76.5114 257.119 75.3523 257.756 73.7159L258.608 71.5L239.824 17.6364H255.097L265.938 56.0909H266.483L277.426 17.6364H292.801L272.449 75.6591C271.472 78.4773 270.142 80.9318 268.46 83.0227C266.801 85.1364 264.699 86.7614 262.153 87.8977C259.608 89.0568 256.54 89.6364 252.949 89.6364Z" fill="#C94C14"/>
</svg>
